<?xml version="1.0" encoding="UTF-8" standalone="no"?>
<!-- Generator: Adobe Illustrator 16.0.4, SVG Export Plug-In . SVG Version: 6.00 Build 0)  -->

<svg
   xmlns:dc="http://purl.org/dc/elements/1.1/"
   xmlns:cc="http://creativecommons.org/ns#"
   xmlns:rdf="http://www.w3.org/1999/02/22-rdf-syntax-ns#"
   xmlns:svg="http://www.w3.org/2000/svg"
   xmlns="http://www.w3.org/2000/svg"
   xmlns:sodipodi="http://sodipodi.sourceforge.net/DTD/sodipodi-0.dtd"
   xmlns:inkscape="http://www.inkscape.org/namespaces/inkscape"
   version="1.1"
   id="Layer_1"
   x="0px"
   y="0px"
   width="347.633px"
   height="86.537px"
   viewBox="0 0 347.633 86.537"
   enable-background="new 0 0 347.633 86.537"
   xml:space="preserve"
   sodipodi:docname="OpenMRS-logo.svg"
   inkscape:version="0.92.3 (2405546, 2018-03-11)"><metadata
   id="metadata98"><rdf:RDF><cc:Work
       rdf:about=""><dc:format>image/svg+xml</dc:format><dc:type
         rdf:resource="http://purl.org/dc/dcmitype/StillImage" /></cc:Work></rdf:RDF></metadata><defs
   id="defs96" /><sodipodi:namedview
   pagecolor="#ffffff"
   bordercolor="#666666"
   borderopacity="1"
   objecttolerance="10"
   gridtolerance="10"
   guidetolerance="10"
   inkscape:pageopacity="0"
   inkscape:pageshadow="2"
   inkscape:window-width="1920"
   inkscape:window-height="1017"
   id="namedview94"
   showgrid="false"
   inkscape:zoom="47.710939"
   inkscape:cx="318.32623"
   inkscape:cy="41.168575"
   inkscape:window-x="-8"
   inkscape:window-y="-8"
   inkscape:window-maximized="1"
   inkscape:current-layer="Layer_1" />
<g
   id="g79">
	<g
   id="g63">
		<path
   fill="#F26522"
   d="M23.436,23.473c5.069-5.068,12.073-8.203,19.811-8.203c7.717,0,14.705,3.121,19.77,8.166l0.021-18.656    C57.107,1.725,50.376,0,43.247,0c-7.133,0-13.899,1.941-19.833,4.998L23.436,23.473z"
   id="path55" />
		<path
   fill="#EEA616"
   d="M63.038,63.064c-5.068,5.068-12.07,8.203-19.808,8.203c-7.717,0-14.705-3.119-19.773-8.166l-0.021,18.656    c5.934,3.055,12.662,4.779,19.794,4.779c7.133,0,13.863-1.725,19.794-4.779L63.038,63.064z"
   id="path57" />
		<path
   fill="#5B57A6"
   d="M23.474,63.088c-5.068-5.068-8.205-12.068-8.205-19.807c0-7.719,3.121-14.705,8.167-19.773l-18.657-0.02    C1.725,29.42,0,36.148,0,43.281s1.725,13.863,4.782,19.793L23.474,63.088z"
   id="path59" />
		<path
   fill="#009384"
   d="M63.027,23.434c5.069,5.068,8.205,12.074,8.205,19.812c0,7.717-3.121,14.703-8.167,19.77l18.657,0.02    c3.055-5.93,4.779-12.66,4.779-19.789c0-7.135-1.725-13.865-4.781-19.799L63.027,23.434z"
   id="path61" />
	</g>
	<path
   d="M104.957,43.271c0-11.555,8.37-20.084,19.98-20.084c11.608,0,19.98,8.529,19.98,20.084c0,11.557-8.372,20.09-19.98,20.09   C113.327,63.361,104.957,54.828,104.957,43.271z M140.056,43.271c0-8.803-6.156-15.875-15.119-15.875   c-8.965,0-15.119,7.072-15.119,15.875s6.154,15.879,15.119,15.879C133.9,59.15,140.056,52.074,140.056,43.271z"
   id="path65" />
	<path
   d="M150.155,36.533h4.275v3.727h0.111c2.358-2.74,5.483-4.387,9.211-4.387c8.063,0,13.491,5.705,13.491,13.492   c0,7.678-5.647,13.49-12.832,13.49c-4.608,0-8.283-2.305-9.871-5.211h-0.111v16.688h-4.275V36.533z M163.533,58.906   c5.541,0,9.106-4.166,9.106-9.541s-3.565-9.543-9.106-9.543s-9.104,4.168-9.104,9.543S157.993,58.906,163.533,58.906z"
   id="path67" />
	<path
   d="M205.707,57.537c-3.02,3.893-6.637,5.318-11.409,5.318c-8.061,0-12.995-6.031-12.995-13.49   c0-7.951,5.594-13.492,13.162-13.492c7.24,0,12.172,4.938,12.172,13.439v1.369H185.91c0.327,4.441,3.728,8.225,8.388,8.225   c3.673,0,6.143-1.314,8.171-3.893L205.707,57.537z M202.031,47.061c-0.164-4.332-3.018-7.238-7.733-7.238   c-4.714,0-7.839,2.906-8.388,7.238H202.031z"
   id="path69" />
	<path
   d="M212.176,42.621c0-2.361-0.219-4.387-0.219-6.088h4.057c0,1.371,0.111,2.795,0.111,4.221h0.11   c1.151-2.52,4.333-4.881,8.553-4.881c6.747,0,9.761,4.279,9.761,10.475v15.848h-4.275V46.789c0-4.279-1.867-6.967-5.869-6.967   c-5.538,0-7.953,4.004-7.953,9.873v12.5h-4.275V42.621z"
   id="path71" />
	<path
   d="M243.729,24.158h6.75l12.962,29.969h0.108l13.062-29.969h6.59v38.229h-4.533V30.312h-0.107l-13.719,32.074h-2.756   l-13.715-32.074h-0.107v32.074h-4.535V24.158z"
   id="path73" />
	<path
   d="M292.709,24.158h9.771c7.398,0,15.228,1.078,15.228,10.527c0,5.562-3.617,9.182-9.556,10.1l10.853,17.602h-5.561   l-10.368-17.17h-5.834v17.17h-4.533V24.158z M297.243,41.006h4.049c5.023,0,11.56,0,11.56-6.32c0-5.506-4.806-6.314-9.235-6.314   h-6.373V41.006z"
   id="path75" />
	<path
   d="M343.261,30.904c-1.516-2.43-4.213-3.508-6.969-3.508c-3.998,0-8.151,1.891-8.151,6.426c0,3.51,1.943,5.078,8.044,7.021   c5.94,1.891,11.448,3.834,11.448,11.338c0,7.615-6.535,11.18-13.444,11.18c-4.429,0-9.182-1.459-11.773-5.293l3.887-3.186   c1.62,2.811,4.86,4.268,8.156,4.268c3.886,0,8.314-2.27,8.314-6.645c0-4.697-3.185-5.508-9.99-7.775   c-5.399-1.783-9.501-4.16-9.501-10.529c0-7.344,6.316-11.014,13.011-11.014c4.267,0,7.885,1.186,10.69,4.479L343.261,30.904z"
   id="path77" />
</g>
<g
   id="g81">
</g>
<g
   id="g83">
</g>
<g
   id="g85">
</g>
<g
   id="g87">
</g>
<g
   id="g89">
</g>
<g
   id="g91">
</g>
<path
   style="opacity:1;vector-effect:none;fill:#929393;fill-opacity:1;stroke-width:0.23713028;stroke-linecap:butt;stroke-linejoin:miter;stroke-miterlimit:4;stroke-dasharray:none;stroke-dashoffset:0;stroke-opacity:1"
   d="m 122.11542,63.076257 c -4.66522,-0.622647 -9.22374,-2.967152 -12.10678,-6.226664 -2.23306,-2.524669 -3.9907,-6.253289 -4.61464,-9.78945 -0.42488,-2.407933 -0.18677,-7.549918 0.44768,-9.66775 2.1354,-7.128131 7.20202,-11.899762 14.42163,-13.581987 2.63745,-0.614546 7.34027,-0.555609 9.91454,0.124252 4.17661,1.103032 8.15427,3.684581 10.5111,6.821827 2.66036,3.541273 3.80285,6.854548 3.99554,11.587208 0.16799,4.126099 -0.36156,6.778459 -2.02909,10.163158 -1.42078,2.88385 -3.02886,4.89255 -5.32426,6.650686 -4.0544,3.105418 -9.94416,4.622293 -15.21572,3.91872 z m 7.60661,-4.59037 c 4.84999,-1.532403 8.42766,-5.409265 9.79957,-10.619076 0.93464,-3.549283 0.82485,-6.839629 -0.34446,-10.322944 -2.96768,-8.840544 -12.68095,-12.766718 -21.19773,-8.568267 -6.87357,3.388414 -10.03595,12.1964 -7.25254,20.200092 1.49329,4.293969 4.85314,7.730758 8.97342,9.178919 3.13123,1.100539 6.80188,1.148622 10.02174,0.131276 z"
   id="path4610"
   inkscape:connector-curvature="0" /><path
   style="opacity:1;vector-effect:none;fill:#929393;fill-opacity:1;stroke-width:0.23713028;stroke-linecap:butt;stroke-linejoin:miter;stroke-miterlimit:4;stroke-dasharray:none;stroke-dashoffset:0;stroke-opacity:1"
   d="M 150.21536,55.385859 V 36.534001 h 2.01561 2.01561 v 1.897042 c 0,1.043374 0.0867,1.897043 0.19276,1.897043 0.10602,0 0.50618,-0.334617 0.88924,-0.743594 1.11341,-1.188735 3.38933,-2.552208 5.15575,-3.088744 1.34961,-0.409929 2.05175,-0.476484 4.04107,-0.383043 5.60518,0.263282 9.76926,3.169129 11.68911,8.157098 0.74783,1.942909 1.03296,5.989558 0.57686,8.186614 -0.3565,1.717223 -1.59189,4.269707 -2.80743,5.800532 -4.52206,5.694952 -14.36387,5.88817 -18.60857,0.365328 -0.41581,-0.541024 -0.8399,-0.983681 -0.94241,-0.983681 -0.10251,0 -0.18638,3.734802 -0.18638,8.29956 v 8.29956 h -2.01561 -2.01561 z m 15.20326,3.434813 c 4.63177,-0.872853 7.6182,-5.067039 7.25784,-10.193026 -0.41321,-5.87774 -5.00507,-9.639626 -10.67985,-8.74948 -5.78382,0.907249 -9.02805,6.795094 -7.10756,12.89926 1.40346,4.460789 5.73497,6.946783 10.52957,6.043246 z"
   id="path4616"
   inkscape:connector-curvature="0" /><path
   style="opacity:1;vector-effect:none;fill:#ffffff;fill-opacity:1;stroke-width:0.23713028;stroke-linecap:butt;stroke-linejoin:miter;stroke-miterlimit:4;stroke-dasharray:none;stroke-dashoffset:0;stroke-opacity:1"
   d="m 186.12379,46.315625 c 0.0842,-0.358659 0.47378,-1.314558 0.86562,-2.124219 1.34548,-2.780119 3.76858,-4.162923 7.33218,-4.184296 1.67519,-0.01005 2.23588,0.08974 3.31983,0.590802 0.71732,0.33159 1.64557,0.891616 2.06277,1.244504 0.89495,0.756976 1.89037,2.699418 2.11006,4.117514 l 0.15613,1.007804 h -7.99988 -7.99988 z"
   id="path4618"
   inkscape:connector-curvature="0" /><path
   style="opacity:1;vector-effect:none;fill:#ffffff;fill-opacity:1;stroke-width:0.23713028;stroke-linecap:butt;stroke-linejoin:miter;stroke-miterlimit:4;stroke-dasharray:none;stroke-dashoffset:0;stroke-opacity:1"
   d="m 192.46561,62.593268 c -5.29578,-0.661186 -9.19461,-4.186138 -10.58421,-9.56925 -0.47161,-1.826922 -0.47103,-5.548972 10e-4,-7.361776 1.54566,-5.9342 6.39375,-9.608405 12.66671,-9.599687 3.42852,0.0048 5.77854,0.876133 8.06039,2.988719 2.41976,2.240271 3.80559,5.711495 3.80559,9.532239 v 1.941175 h -10.33601 -10.33601 l 0.15324,1.007804 c 0.24529,1.61314 1.67199,4.310145 2.79991,5.292889 3.54263,3.086643 8.95763,2.887937 12.66659,-0.464808 l 1.23167,-1.113382 1.43604,1.115188 c 0.78983,0.613354 1.43605,1.195321 1.43605,1.29326 0,0.410182 -3.15108,3.02218 -4.36009,3.614176 -2.42534,1.187572 -5.70549,1.689957 -8.64102,1.323453 z m 9.56831,-16.514773 c -0.40946,-2.764636 -2.25169,-5.079147 -4.6864,-5.887831 -1.80102,-0.598201 -4.66919,-0.534015 -6.45232,0.144395 -2.48008,0.943571 -4.50683,3.381208 -4.97249,5.980566 l -0.1593,0.889239 h 8.21867 8.21866 z"
   id="path4620"
   inkscape:connector-curvature="0" /><path
   style="opacity:1;vector-effect:none;fill:#929393;fill-opacity:1;stroke-width:0.23713028;stroke-linecap:butt;stroke-linejoin:miter;stroke-miterlimit:4;stroke-dasharray:none;stroke-dashoffset:0;stroke-opacity:1"
   d="m 212.3435,52.22183 c 0,-5.457233 -0.0698,-11.219499 -0.15501,-12.805035 l -0.15501,-2.882794 h 1.93349 1.93348 v 2.134173 c 0,1.173795 0.0862,2.134172 0.19148,2.134172 0.10532,0 0.52615,-0.474799 0.93519,-1.055109 1.03157,-1.463488 2.7294,-2.648447 4.6482,-3.244085 1.34572,-0.417743 2.02716,-0.485102 3.96398,-0.391837 2.01472,0.09701 2.5501,0.216598 3.86267,0.862778 2.47271,1.217311 4.09147,3.451989 4.6557,6.427119 0.1334,0.70341 0.23894,5.121191 0.23894,10.001405 v 8.741455 h -2.01561 -2.0156 v -8.461851 c 0,-7.080659 -0.0627,-8.685449 -0.38437,-9.831718 -0.47231,-1.683323 -1.62365,-3.085991 -2.98932,-3.641888 -1.19566,-0.486693 -3.72451,-0.553728 -5.20781,-0.13805 -1.51571,0.424764 -3.15885,1.730831 -3.97471,3.159347 -1.26096,2.207852 -1.43448,3.619427 -1.43448,11.669214 v 7.244946 h -2.01561 -2.0156 z"
   id="path4622"
   inkscape:connector-curvature="0" /><path
   style="opacity:1;vector-effect:none;fill:#929393;fill-opacity:1;stroke-width:0.23713028;stroke-linecap:butt;stroke-linejoin:miter;stroke-miterlimit:4;stroke-dasharray:none;stroke-dashoffset:0;stroke-opacity:1"
   d="m 191.32771,62.264702 c -4.39586,-0.956102 -7.84622,-4.287415 -9.19548,-8.878207 -0.51361,-1.747538 -0.51374,-6.346655 -2.3e-4,-8.094916 1.25582,-4.275463 4.55309,-7.523667 8.77052,-8.640021 1.63665,-0.433221 5.17294,-0.500128 6.81587,-0.128956 4.85608,1.097089 8.14152,5.575198 8.5766,11.690066 l 0.16451,2.31202 H 196.03425 185.609 l 0.20406,1.092283 c 0.23324,1.248467 1.40231,3.720841 2.17582,4.60148 2.22726,2.535734 6.24981,3.514964 9.68511,2.357695 1.63822,-0.551877 2.23151,-0.892697 3.82499,-2.197306 l 1.13057,-0.925611 1.30002,1.002956 c 0.71501,0.551626 1.30002,1.088164 1.30002,1.192307 0,0.424657 -3.06072,2.897258 -4.38691,3.543967 -2.67771,1.305765 -6.47426,1.733597 -9.51497,1.072243 z m 10.76783,-16.290831 c -0.4281,-2.355367 -2.04801,-4.650868 -3.90338,-5.531298 -1.39207,-0.660577 -3.67232,-0.928836 -5.42566,-0.638299 -1.98665,0.329199 -3.34164,0.990628 -4.60784,2.249284 -1.11742,1.110772 -2.37328,3.491299 -2.37357,4.499198 l -1.9e-4,0.652108 h 8.26719 8.26719 z"
   id="path4624"
   inkscape:connector-curvature="0" /><path
   style="opacity:1;vector-effect:none;fill:#929393;fill-opacity:1;stroke-width:0.23713028;stroke-linecap:butt;stroke-linejoin:miter;stroke-miterlimit:4;stroke-dasharray:none;stroke-dashoffset:0;stroke-opacity:1"
   d="M 243.88182,43.292214 V 24.203226 l 3.26054,0.0041 3.26055,0.0041 6.4928,15.048468 c 3.57105,8.276658 6.55889,15.007434 6.63965,14.957278 0.0808,-0.05015 3.07906,-6.823826 6.66288,-15.052604 l 6.51603,-14.961415 h 3.14702 3.14703 v 19.088988 19.088988 h -2.13417 -2.13418 V 46.216821 c 0,-8.890409 -0.0755,-16.088911 -0.16771,-15.996671 -0.0922,0.09224 -3.23711,7.339535 -6.9886,16.105098 l -6.82089,15.937389 -1.26685,0.0698 -1.26686,0.0698 -6.82539,-15.95753 c -3.75396,-8.776641 -6.92171,-16.058902 -7.03944,-16.182803 -0.12744,-0.134111 -0.21406,6.319228 -0.21406,15.947012 v 16.172285 h -2.13417 -2.13418 z"
   id="path4626"
   inkscape:connector-curvature="0" /><path
   style="opacity:1;vector-effect:none;fill:#929393;fill-opacity:1;stroke-width:0.23713028;stroke-linecap:butt;stroke-linejoin:miter;stroke-miterlimit:4;stroke-dasharray:none;stroke-dashoffset:0;stroke-opacity:1"
   d="M 292.73066,43.263257 V 24.145311 l 7.29176,0.134739 c 7.80385,0.144201 8.91772,0.264628 11.67866,1.262652 2.32486,0.840388 4.39652,2.801703 5.18322,4.907129 1.00518,2.690153 0.9003,6.163127 -0.26092,8.640444 -1.15073,2.454921 -4.04457,4.589187 -7.17117,5.28889 -0.71945,0.161004 -1.30808,0.366657 -1.30808,0.457006 0,0.09035 2.39476,4.048265 5.32168,8.795369 l 5.32168,8.631097 -2.51848,0.06773 c -1.82278,0.04902 -2.5951,-0.01648 -2.79588,-0.23713 -0.15257,-0.167675 -2.54293,-4.066344 -5.31191,-8.663707 l -5.03452,-8.358843 h -2.94528 -2.94528 v 8.655256 8.655255 h -2.25274 -2.25274 z m 14.73622,-2.565948 c 3.72355,-0.789226 5.41986,-2.619334 5.41986,-5.847374 0,-1.912351 -0.37303,-3.09203 -1.33198,-4.212349 -1.56033,-1.822897 -4.01088,-2.390955 -10.34669,-2.398447 l -3.97193,-0.0047 v 6.402518 6.402518 l 4.32762,-0.0041 c 2.80223,-0.0027 4.88296,-0.121822 5.90312,-0.33805 z"
   id="path4628"
   inkscape:connector-curvature="0" /><path
   style="opacity:1;vector-effect:none;fill:#929393;fill-opacity:1;stroke-width:0.23713028;stroke-linecap:butt;stroke-linejoin:miter;stroke-miterlimit:4;stroke-dasharray:none;stroke-dashoffset:0;stroke-opacity:1"
   d="m 331.65826,63.089098 c -3.20556,-0.446787 -5.93784,-1.722112 -7.86057,-3.669022 l -1.26103,-1.276899 0.79207,-0.667269 c 0.43564,-0.366997 1.28369,-1.059052 1.88455,-1.537898 l 1.09247,-0.870629 0.46368,0.707623 c 0.66015,1.007434 2.4765,2.286443 4.07405,2.86879 1.96514,0.716345 5.35237,0.698785 7.24601,-0.03756 1.94554,-0.756531 3.23826,-1.828149 4.03308,-3.343271 0.61836,-1.178744 0.67455,-1.480312 0.60296,-3.235987 -0.0693,-1.70062 -0.16547,-2.058743 -0.79033,-2.944413 -0.95087,-1.347735 -2.66611,-2.243371 -7.46961,-3.900367 -4.78813,-1.651692 -6.86856,-2.702369 -8.42728,-4.256015 -1.43098,-1.426319 -2.14268,-2.859879 -2.503,-5.041701 -0.54854,-3.321526 0.58009,-6.776045 2.94435,-9.012058 4.88377,-4.618863 14.32311,-4.783829 19.16155,-0.334875 l 1.21778,1.119753 -1.74009,1.475635 -1.7401,1.475634 -0.95893,-0.937897 c -0.52742,-0.515844 -1.59919,-1.236762 -2.38172,-1.60204 -1.28709,-0.600805 -1.66023,-0.662327 -3.91265,-0.645109 -2.82811,0.02162 -4.44788,0.501941 -5.99442,1.777566 -2.48332,2.048304 -2.77198,6.352511 -0.57179,8.525867 1.06178,1.048826 2.8454,1.899987 6.93832,3.311026 4.49992,1.551348 6.69142,2.627369 8.15681,4.004962 3.95286,3.716036 3.75692,10.936975 -0.39987,14.736047 -2.85872,2.612706 -7.96761,3.955245 -12.59629,3.310111 z"
   id="path4630"
   inkscape:connector-curvature="0" /></svg>